<svg width="30" height="30" viewBox="0 0 30 30" fill="none" xmlns="http://www.w3.org/2000/svg">
<path d="M0 18H30V23C30 26.866 26.866 30 23 30H7C3.13401 30 0 26.866 0 23V18Z" fill="white"/>
<rect x="0.5" y="0.5" width="29" height="29" rx="6.5" stroke="white"/>
<path d="M11 23V26.7C11 26.8657 10.8657 27 10.7 27H9.3C9.13431 27 9 26.8657 9 26.7V24.8C9 24.6343 8.86569 24.5 8.7 24.5H7.3C7.13431 24.5 7 24.6343 7 24.8V26.7C7 26.8657 6.86569 27 6.7 27H5.3C5.13431 27 5 26.8657 5 26.7V23M11 23L9.5 21.5M11 23L12 24M11 23V21.5V20.3C11 20.1343 10.8657 20 10.7 20H9.8C9.63431 20 9.5 20.1343 9.5 20.3V21.5M5 23L7.78787 20.2121C7.90503 20.095 8.09497 20.095 8.21213 20.2121L9.5 21.5M5 23L4 24" stroke="#1E1E1E" stroke-linecap="round"/>
<path d="M6.712 16V14.496H8.344V8.912H5.736V7.28H5.96C6.70667 7.28 7.29333 7.2 7.72 7.04C8.14667 6.88 8.456 6.64533 8.648 6.336C8.85067 6.02667 8.984 5.648 9.048 5.2L9.064 5.088H11.256V14.496H12.456V16H6.712ZM14.3403 15.488C14.3403 14.592 14.4736 13.808 14.7403 13.136C15.0176 12.464 15.4123 11.888 15.9243 11.408C16.4469 10.928 17.0709 10.5227 17.7963 10.192L18.6443 9.808C18.9003 9.69067 19.1349 9.568 19.3483 9.44C19.5616 9.312 19.7483 9.17333 19.9083 9.024C20.0789 8.87467 20.2069 8.70933 20.2923 8.528C20.3883 8.336 20.4363 8.12267 20.4363 7.888L23.3643 8.272C23.3643 8.848 23.2576 9.34933 23.0443 9.776C22.8416 10.2027 22.5536 10.5653 22.1803 10.864C21.8176 11.152 21.3909 11.4027 20.9003 11.616C20.4203 11.8187 19.8976 11.9947 19.3323 12.144L18.5323 12.352C18.1056 12.4587 17.7376 12.5813 17.4283 12.72C17.1296 12.848 16.8789 12.9867 16.6763 13.136C16.4843 13.2853 16.3189 13.44 16.1803 13.6L14.3403 16V15.488ZM14.3403 16V15.488L16.1803 13.6H23.3163V16H14.3403ZM20.3403 13.6C20.8523 13.6 21.1989 13.4987 21.3802 13.296C21.5616 13.0827 21.6523 12.6987 21.6523 12.144V12.08H23.3163V13.6H20.3403ZM16.2603 9.52C15.9403 9.52 15.6469 9.45067 15.3803 9.312C15.1243 9.17333 14.9163 8.97067 14.7563 8.704C14.5963 8.43733 14.5163 8.12267 14.5163 7.76C14.5163 7.20533 14.7083 6.71467 15.0923 6.288C15.4869 5.86133 16.0203 5.53067 16.6923 5.296C17.3749 5.05067 18.1376 4.928 18.9803 4.928C19.7909 4.928 20.5269 5.04533 21.1883 5.28C21.8496 5.51467 22.3776 5.87733 22.7723 6.368C23.1669 6.85867 23.3643 7.49333 23.3643 8.272L20.4363 7.888C20.4363 7.6 20.3563 7.35467 20.1963 7.152C20.0363 6.93867 19.8069 6.77867 19.5083 6.672C19.2203 6.55467 18.8736 6.496 18.4683 6.496C18.0629 6.496 17.7002 6.544 17.3802 6.64C17.0603 6.72533 16.7936 6.848 16.5803 7.008C16.3776 7.15733 16.2283 7.33867 16.1323 7.552L16.0683 6.96C16.6016 6.96 17.0176 7.06667 17.3163 7.28C17.6149 7.49333 17.7643 7.80267 17.7643 8.208C17.7643 8.57067 17.6363 8.88 17.3802 9.136C17.1243 9.392 16.7509 9.52 16.2603 9.52Z" fill="white"/>
<path d="M23.9492 27V21.7031C23.8555 21.8151 23.7266 21.9062 23.5625 21.9766C23.3984 22.0443 23.2435 22.0781 23.0977 22.0781V20.9805C23.2357 20.9596 23.3841 20.9154 23.543 20.8477C23.7018 20.7773 23.849 20.6823 23.9844 20.5625C24.1224 20.4401 24.2279 20.293 24.3008 20.1211H25.4062V27H23.9492Z" fill="#1E1E1E"/>
</svg>
