<svg width="24" height="24" viewBox="0 0 24 24" fill="none" xmlns="http://www.w3.org/2000/svg">
<rect x="0.75" y="0.75" width="22.5" height="22.5" rx="11.25" stroke="white" stroke-width="1.5"/>
<path d="M10.292 8.83203V9.95996H10.2139C9.85579 9.95996 9.53841 10.0072 9.26172 10.1016C8.98828 10.196 8.75553 10.3294 8.56348 10.502C8.36816 10.6745 8.21354 10.8812 8.09961 11.1221C7.98893 11.363 7.91895 11.6315 7.88965 11.9277C7.96452 11.8464 8.05078 11.7666 8.14844 11.6885C8.24609 11.6071 8.35677 11.5339 8.48047 11.4688C8.60091 11.4069 8.73275 11.3564 8.87598 11.3174C9.01921 11.2783 9.17383 11.2588 9.33984 11.2588C9.67839 11.2588 9.97298 11.3239 10.2236 11.4541C10.4775 11.5811 10.6891 11.7536 10.8584 11.9717C11.0277 12.193 11.153 12.4502 11.2344 12.7432C11.319 13.0329 11.3613 13.3389 11.3613 13.6611C11.3613 14.0062 11.306 14.3268 11.1953 14.623C11.0846 14.9193 10.9268 15.1764 10.7217 15.3945C10.5166 15.6126 10.2676 15.7852 9.97461 15.9121C9.68164 16.0358 9.35286 16.0977 8.98828 16.0977C8.60742 16.0977 8.264 16.0277 7.95801 15.8877C7.65202 15.7445 7.39323 15.5475 7.18164 15.2969C6.9668 15.0462 6.80078 14.75 6.68359 14.4082C6.56966 14.0632 6.5127 13.6872 6.5127 13.2803V12.7578C6.5127 12.1947 6.58919 11.6738 6.74219 11.1953C6.89518 10.7135 7.12305 10.2969 7.42578 9.94531C7.72852 9.59701 8.10449 9.3252 8.55371 9.12988C9.00293 8.93132 9.52214 8.83203 10.1113 8.83203H10.292ZM8.94434 12.3477C8.81413 12.3477 8.69206 12.3672 8.57812 12.4062C8.46419 12.4421 8.36003 12.4941 8.26562 12.5625C8.18424 12.6243 8.10938 12.696 8.04102 12.7773C7.97591 12.8587 7.92057 12.9482 7.875 13.0459V13.4463C7.875 13.7067 7.90104 13.9346 7.95312 14.1299C8.00846 14.3252 8.08496 14.4863 8.18262 14.6133C8.28027 14.7435 8.39583 14.8411 8.5293 14.9062C8.66276 14.9714 8.80762 15.0039 8.96387 15.0039C9.12337 15.0039 9.26823 14.9714 9.39844 14.9062C9.52865 14.8379 9.63932 14.7451 9.73047 14.6279C9.82161 14.5107 9.8916 14.3724 9.94043 14.2129C9.98926 14.0501 10.0137 13.8727 10.0137 13.6807C10.0137 13.4886 9.98926 13.3112 9.94043 13.1484C9.8916 12.9857 9.82161 12.8441 9.73047 12.7236C9.63932 12.6064 9.52702 12.5153 9.39355 12.4502C9.26335 12.3818 9.11361 12.3477 8.94434 12.3477ZM14.0615 11.8496H14.7988C14.9941 11.8496 15.1618 11.8236 15.3018 11.7715C15.445 11.7161 15.5605 11.6396 15.6484 11.542C15.7298 11.4574 15.79 11.3548 15.8291 11.2344C15.8714 11.1107 15.8926 10.9772 15.8926 10.834C15.8926 10.694 15.8714 10.5671 15.8291 10.4531C15.79 10.3359 15.7298 10.235 15.6484 10.1504C15.5671 10.069 15.4629 10.0055 15.3359 9.95996C15.2122 9.91439 15.0674 9.8916 14.9014 9.8916C14.7646 9.8916 14.6361 9.91113 14.5156 9.9502C14.3984 9.98926 14.2959 10.0446 14.208 10.1162C14.1169 10.1911 14.0452 10.2806 13.9932 10.3848C13.9411 10.4889 13.915 10.6061 13.915 10.7363H12.5576C12.5576 10.4466 12.6162 10.1829 12.7334 9.94531C12.8538 9.70768 13.0182 9.5026 13.2266 9.33008C13.4349 9.16081 13.679 9.02897 13.959 8.93457C14.2422 8.84017 14.5465 8.79297 14.8721 8.79297C15.2236 8.79297 15.5459 8.83691 15.8389 8.9248C16.1318 9.00944 16.3825 9.13639 16.5908 9.30566C16.7992 9.47819 16.9603 9.69141 17.0742 9.94531C17.1914 10.196 17.25 10.4873 17.25 10.8193C17.25 10.9723 17.2272 11.1237 17.1816 11.2734C17.1361 11.4199 17.0693 11.5599 16.9814 11.6934C16.8936 11.8268 16.7845 11.9505 16.6543 12.0645C16.5241 12.1751 16.3743 12.2712 16.2051 12.3525C16.4036 12.4242 16.5745 12.5153 16.7178 12.626C16.8643 12.7367 16.9847 12.862 17.0791 13.002C17.1735 13.1452 17.2435 13.3014 17.2891 13.4707C17.3346 13.64 17.3574 13.819 17.3574 14.0078C17.3574 14.3398 17.2939 14.6361 17.167 14.8965C17.04 15.1569 16.8659 15.375 16.6445 15.5508C16.4232 15.7298 16.1595 15.8665 15.8535 15.9609C15.5508 16.0521 15.2236 16.0977 14.8721 16.0977C14.5693 16.0977 14.2731 16.057 13.9834 15.9756C13.6969 15.891 13.4414 15.764 13.2168 15.5947C12.9922 15.4287 12.8115 15.2188 12.6748 14.9648C12.5413 14.7109 12.4746 14.4115 12.4746 14.0664H13.832C13.832 14.2031 13.8581 14.3301 13.9102 14.4473C13.9622 14.5612 14.0371 14.6589 14.1348 14.7402C14.2292 14.8249 14.3415 14.8916 14.4717 14.9404C14.6019 14.986 14.7451 15.0088 14.9014 15.0088C15.0771 15.0088 15.235 14.9844 15.375 14.9355C15.515 14.8867 15.6322 14.8151 15.7266 14.7207C15.8177 14.6361 15.8861 14.5319 15.9316 14.4082C15.9805 14.2845 16.0049 14.1462 16.0049 13.9932C16.0049 13.8011 15.9772 13.6367 15.9219 13.5C15.8665 13.3633 15.7868 13.251 15.6826 13.1631C15.5752 13.0752 15.4466 13.0101 15.2969 12.9678C15.1504 12.9255 14.9844 12.9043 14.7988 12.9043H14.0615V11.8496Z" fill="white"/>
</svg>
