<svg width="30" height="30" viewBox="0 0 30 30" fill="none" xmlns="http://www.w3.org/2000/svg">
<path d="M0 18H30V23C30 26.866 26.866 30 23 30H7C3.13401 30 0 26.866 0 23V18Z" fill="#F0FFF7"/>
<rect x="0.5" y="0.5" width="29" height="29" rx="6.5" stroke="#F0FFF7"/>
<path d="M11 23V26.7C11 26.8657 10.8657 27 10.7 27H9.3C9.13431 27 9 26.8657 9 26.7V24.8C9 24.6343 8.86569 24.5 8.7 24.5H7.3C7.13431 24.5 7 24.6343 7 24.8V26.7C7 26.8657 6.86569 27 6.7 27H5.3C5.13431 27 5 26.8657 5 26.7V23M11 23L9.5 21.5M11 23L12 24M11 23V21.5V20.3C11 20.1343 10.8657 20 10.7 20H9.8C9.63431 20 9.5 20.1343 9.5 20.3V21.5M5 23L7.78787 20.2121C7.90503 20.095 8.09497 20.095 8.21213 20.2121L9.5 21.5M5 23L4 24" stroke="#1E1E1E" stroke-linecap="round"/>
<path d="M4.736 10.912C4.72533 9.696 4.93333 8.64 5.36 7.744C5.79733 6.848 6.42667 6.15467 7.248 5.664C8.08 5.17333 9.088 4.928 10.272 4.928C10.816 4.928 11.3227 4.98667 11.792 5.104C12.272 5.21067 12.688 5.36533 13.04 5.568C13.392 5.76 13.664 5.99467 13.856 6.272C14.0587 6.54933 14.16 6.85333 14.16 7.184C14.16 7.64267 14 7.98933 13.68 8.224C13.3707 8.448 12.992 8.56 12.544 8.56C12.0747 8.56 11.696 8.464 11.408 8.272C11.12 8.06933 10.976 7.79733 10.976 7.456C10.976 7.072 11.12 6.80533 11.408 6.656C11.696 6.496 12.0747 6.416 12.544 6.416L12.464 7.072C12.3573 6.96533 12.2187 6.86933 12.048 6.784C11.8773 6.69867 11.6747 6.62933 11.44 6.576C11.2053 6.52267 10.9387 6.496 10.64 6.496C10.0747 6.496 9.616 6.608 9.264 6.832C8.912 7.04533 8.64 7.344 8.448 7.728C8.256 8.10133 8.12267 8.528 8.048 9.008C7.984 9.47733 7.952 9.968 7.952 10.48L4.736 10.912ZM9.84 16.16C8.85867 16.16 7.97867 15.9787 7.2 15.616C6.432 15.2427 5.82933 14.672 5.392 13.904C4.95467 13.1253 4.736 12.128 4.736 10.912L7.952 10.48C8.18667 10.0747 8.53867 9.73867 9.008 9.472C9.488 9.19467 10.112 9.056 10.88 9.056C11.6053 9.056 12.2453 9.184 12.8 9.44C13.3547 9.696 13.792 10.0747 14.112 10.576C14.432 11.0667 14.592 11.6853 14.592 12.432C14.592 13.168 14.4053 13.8187 14.032 14.384C13.6693 14.9387 13.136 15.376 12.432 15.696C11.728 16.0053 10.864 16.16 9.84 16.16ZM9.936 14.528C10.2987 14.528 10.608 14.4533 10.864 14.304C11.1307 14.144 11.3333 13.9253 11.472 13.648C11.6107 13.3707 11.68 13.0453 11.68 12.672C11.68 12.2987 11.6107 11.9733 11.472 11.696C11.3333 11.4187 11.1307 11.2053 10.864 11.056C10.608 10.896 10.2987 10.816 9.936 10.816C9.57333 10.816 9.25867 10.896 8.992 11.056C8.72533 11.216 8.52267 11.4347 8.384 11.712C8.24533 11.9893 8.176 12.3093 8.176 12.672C8.176 13.0453 8.24533 13.3707 8.384 13.648C8.52267 13.9253 8.72533 14.144 8.992 14.304C9.25867 14.4533 9.57333 14.528 9.936 14.528ZM20.7544 16.16C19.7944 16.16 18.957 15.9893 18.2424 15.648C17.5384 15.3067 17.005 14.8107 16.6424 14.16C16.2797 13.5093 16.1357 12.72 16.2104 11.792H17.8904C17.9224 12.24 18.0344 12.6293 18.2264 12.96C18.429 13.28 18.701 13.5253 19.0424 13.696C19.3837 13.8667 19.7784 13.952 20.2264 13.952C20.9197 13.952 21.421 13.8027 21.7304 13.504C22.0504 13.1947 22.2104 12.8213 22.2104 12.384C22.2104 12.0107 22.093 11.7067 21.8584 11.472C21.6237 11.2373 21.2877 11.0613 20.8504 10.944C20.4237 10.8267 19.917 10.768 19.3304 10.768V9.568C20.6637 9.48267 21.757 9.54667 22.6104 9.76C23.4744 9.97333 24.1144 10.32 24.5304 10.8C24.9464 11.28 25.1544 11.8827 25.1544 12.608C25.1544 13.2373 24.9944 13.824 24.6744 14.368C24.3544 14.912 23.869 15.3493 23.2184 15.68C22.5677 16 21.7464 16.16 20.7544 16.16ZM19.3304 9.328C20.205 9.328 20.8717 9.20533 21.3304 8.96C21.789 8.71467 22.0184 8.31467 22.0184 7.76C22.0184 7.35467 21.8424 7.04533 21.4904 6.832C21.1384 6.608 20.6744 6.496 20.0984 6.496C19.757 6.496 19.4584 6.528 19.2024 6.592C18.9464 6.656 18.733 6.74133 18.5624 6.848C18.4024 6.95467 18.2797 7.07733 18.1944 7.216L18.0184 6.784C18.4557 6.784 18.8184 6.864 19.1064 7.024C19.405 7.184 19.5544 7.45067 19.5544 7.824C19.5544 8.19733 19.4264 8.49067 19.1704 8.704C18.9144 8.90667 18.573 9.008 18.1464 9.008C17.677 9.008 17.277 8.87467 16.9464 8.608C16.6157 8.33067 16.4504 7.93067 16.4504 7.408C16.4504 6.88533 16.637 6.44267 17.0104 6.08C17.3944 5.70667 17.901 5.424 18.5304 5.232C19.1597 5.02933 19.853 4.928 20.6104 4.928C21.4104 4.928 22.125 5.04 22.7544 5.264C23.3944 5.47733 23.8957 5.78667 24.2584 6.192C24.6317 6.58667 24.8184 7.056 24.8184 7.6C24.8184 8.464 24.3704 9.11467 23.4744 9.552C22.589 9.97867 21.2077 10.1707 19.3304 10.128V9.328Z" fill="#F0FFF7"/>
<path d="M17.0664 27.0625C16.5898 27.0625 16.2161 26.9818 15.9453 26.8203C15.6771 26.6562 15.487 26.4102 15.375 26.082C15.2656 25.7539 15.2109 25.3451 15.2109 24.8555V22.9961C15.2109 22.5195 15.2305 22.099 15.2695 21.7344C15.3112 21.3698 15.3958 21.0638 15.5234 20.8164C15.651 20.569 15.8411 20.3815 16.0938 20.2539C16.3464 20.1263 16.6836 20.0625 17.1055 20.0625C17.3945 20.0625 17.6641 20.1133 17.9141 20.2148C18.1641 20.3138 18.3659 20.4635 18.5195 20.6641C18.6732 20.862 18.75 21.1107 18.75 21.4102V22.1523H17.4258V22.0117C17.4258 21.8971 17.4193 21.7826 17.4062 21.668C17.3958 21.5534 17.3672 21.4583 17.3203 21.3828C17.2734 21.3073 17.194 21.2695 17.082 21.2695C16.9284 21.2695 16.8216 21.3125 16.7617 21.3984C16.7018 21.4818 16.6719 21.6029 16.6719 21.7617V23.1406C16.737 23.0182 16.8346 22.9206 16.9648 22.8477C17.0951 22.7721 17.2539 22.7344 17.4414 22.7344C17.8216 22.7344 18.1133 22.8112 18.3164 22.9648C18.5221 23.1159 18.6641 23.3424 18.7422 23.6445C18.8203 23.9466 18.8594 24.3242 18.8594 24.7773C18.8594 25.2357 18.8034 25.6367 18.6914 25.9805C18.5794 26.3216 18.3919 26.5872 18.1289 26.7773C17.8685 26.9674 17.5143 27.0625 17.0664 27.0625ZM17.0156 25.7969C17.1771 25.7969 17.2734 25.7292 17.3047 25.5938C17.3359 25.4557 17.3516 25.2799 17.3516 25.0664V24.5117C17.3516 24.1367 17.2461 23.9492 17.0352 23.9492C16.793 23.9492 16.6719 24.112 16.6719 24.4375V25.2891C16.6719 25.6276 16.7865 25.7969 17.0156 25.7969ZM20.9297 27.0742C20.2839 27.0742 19.8229 26.8893 19.5469 26.5195C19.2708 26.1497 19.1328 25.6263 19.1328 24.9492V24.4922C19.1328 24.1432 19.1745 23.8607 19.2578 23.6445C19.3411 23.4284 19.4948 23.263 19.7188 23.1484C19.5078 23.0625 19.3581 22.9193 19.2695 22.7188C19.181 22.5156 19.1367 22.2643 19.1367 21.9648V21.7852C19.1367 21.1758 19.2891 20.7331 19.5938 20.457C19.901 20.1784 20.3464 20.0391 20.9297 20.0391C21.5286 20.0391 21.9766 20.1823 22.2734 20.4688C22.5703 20.7526 22.7188 21.2096 22.7188 21.8398C22.7188 22.1706 22.6797 22.4479 22.6016 22.6719C22.5234 22.8958 22.3685 23.0573 22.1367 23.1562C22.3841 23.2839 22.5443 23.4518 22.6172 23.6602C22.6901 23.8659 22.7266 24.1432 22.7266 24.4922V24.9492C22.7266 25.6263 22.5885 26.1497 22.3125 26.5195C22.0365 26.8893 21.5755 27.0742 20.9297 27.0742ZM20.9297 22.5703C21.1719 22.5703 21.293 22.3516 21.293 21.9141C21.293 21.7682 21.2669 21.6302 21.2148 21.5C21.1654 21.3698 21.0703 21.3047 20.9297 21.3047C20.7891 21.3047 20.6927 21.3698 20.6406 21.5C20.5911 21.6302 20.5664 21.7682 20.5664 21.9141C20.5664 22.3516 20.6875 22.5703 20.9297 22.5703ZM20.9297 25.7148C21.1797 25.7148 21.3047 25.513 21.3047 25.1094V24.4805C21.3047 24.2721 21.276 24.1094 21.2188 23.9922C21.1641 23.875 21.0677 23.8164 20.9297 23.8164C20.7865 23.8164 20.6888 23.875 20.6367 23.9922C20.5846 24.1094 20.5586 24.2721 20.5586 24.4805V25.1094C20.5586 25.513 20.6823 25.7148 20.9297 25.7148ZM23.0234 27L23.6875 20.125H26.0195L26.6719 27H25.3711L25.2734 25.8906H24.4453L24.3594 27H23.0234ZM24.543 24.793H25.168L24.8672 21.2969H24.8047L24.543 24.793Z" fill="#1E1E1E"/>
</svg>
