<svg width="24" height="24" viewBox="0 0 24 24" fill="none" xmlns="http://www.w3.org/2000/svg">
<rect x="0.75" y="0.75" width="22.5" height="22.5" rx="11.25" stroke="white" stroke-width="1.5"/>
<path d="M14.1514 10.7803C14.1514 10.9756 14.1221 11.1595 14.0635 11.332C14.0081 11.5013 13.9284 11.6576 13.8242 11.8008C13.7428 11.9082 13.6468 12.0091 13.5361 12.1035C13.4287 12.1947 13.3083 12.2744 13.1748 12.3428C13.2952 12.4014 13.4092 12.4681 13.5166 12.543C13.624 12.6146 13.7201 12.696 13.8047 12.7871C13.9609 12.9499 14.083 13.1387 14.1709 13.3535C14.2588 13.5684 14.3027 13.8027 14.3027 14.0566C14.3027 14.3919 14.2409 14.6865 14.1172 14.9404C13.9967 15.1943 13.8307 15.4059 13.6191 15.5752C13.4043 15.7477 13.152 15.8779 12.8623 15.9658C12.5726 16.0537 12.2601 16.0977 11.9248 16.0977C11.5863 16.0977 11.2705 16.0537 10.9775 15.9658C10.6878 15.8779 10.4355 15.7477 10.2207 15.5752C10.0059 15.4059 9.83659 15.1943 9.71289 14.9404C9.59245 14.6865 9.53223 14.3919 9.53223 14.0566C9.53223 13.8613 9.55827 13.6774 9.61035 13.5049C9.66569 13.3291 9.74219 13.168 9.83984 13.0215C9.9375 12.8783 10.0547 12.7497 10.1914 12.6357C10.3314 12.5186 10.4876 12.4193 10.6602 12.3379C10.5137 12.263 10.3802 12.1735 10.2598 12.0693C10.1426 11.9652 10.0433 11.8496 9.96191 11.7227C9.87402 11.5892 9.80566 11.4427 9.75684 11.2832C9.71126 11.1237 9.68848 10.9561 9.68848 10.7803C9.68848 10.458 9.74382 10.1748 9.85449 9.93066C9.96517 9.68327 10.1198 9.47493 10.3184 9.30566C10.5137 9.13639 10.7464 9.00944 11.0166 8.9248C11.29 8.83691 11.5879 8.79297 11.9102 8.79297C12.2324 8.79297 12.5303 8.83691 12.8037 8.9248C13.0771 9.00944 13.3148 9.13639 13.5166 9.30566C13.7152 9.47493 13.8698 9.68327 13.9805 9.93066C14.0944 10.1748 14.1514 10.458 14.1514 10.7803ZM12.9404 13.9639C12.9404 13.8011 12.916 13.6546 12.8672 13.5244C12.8184 13.3942 12.75 13.2819 12.6621 13.1875C12.571 13.0964 12.4619 13.0264 12.335 12.9775C12.2113 12.9287 12.0713 12.9043 11.915 12.9043C11.7588 12.9043 11.6172 12.9287 11.4902 12.9775C11.3665 13.0264 11.2607 13.0964 11.1729 13.1875C11.085 13.2819 11.0166 13.3942 10.9678 13.5244C10.9189 13.6546 10.8945 13.8011 10.8945 13.9639C10.8945 14.1331 10.9206 14.2845 10.9727 14.418C11.0247 14.5514 11.098 14.6621 11.1924 14.75C11.2803 14.8346 11.3861 14.8997 11.5098 14.9453C11.6335 14.9876 11.7718 15.0088 11.9248 15.0088C12.0745 15.0088 12.2113 14.986 12.335 14.9404C12.4587 14.8916 12.5661 14.8216 12.6572 14.7305C12.7451 14.6393 12.8135 14.5303 12.8623 14.4033C12.9144 14.2731 12.9404 14.1266 12.9404 13.9639ZM12.7988 10.8438C12.7988 10.7005 12.7777 10.5703 12.7354 10.4531C12.693 10.3359 12.6344 10.235 12.5596 10.1504C12.4814 10.069 12.387 10.0055 12.2764 9.95996C12.1689 9.91439 12.0452 9.8916 11.9053 9.8916C11.7686 9.8916 11.6465 9.91439 11.5391 9.95996C11.4316 10.0023 11.3421 10.0641 11.2705 10.1455C11.1956 10.2269 11.1387 10.3278 11.0996 10.4482C11.0638 10.5654 11.0459 10.6973 11.0459 10.8438C11.0459 10.987 11.0654 11.1188 11.1045 11.2393C11.1436 11.3564 11.2021 11.4574 11.2803 11.542C11.3551 11.6266 11.4463 11.6934 11.5537 11.7422C11.6644 11.7878 11.7881 11.8105 11.9248 11.8105C12.0615 11.8105 12.1836 11.7878 12.291 11.7422C12.3984 11.6934 12.4896 11.6266 12.5645 11.542C12.6393 11.4574 12.6963 11.3564 12.7354 11.2393C12.7777 11.1188 12.7988 10.987 12.7988 10.8438Z" fill="white"/>
</svg>
