<svg width="30" height="30" viewBox="0 0 30 30" fill="none" xmlns="http://www.w3.org/2000/svg">
<path d="M0 18H30V23C30 26.866 26.866 30 23 30H7C3.13401 30 0 26.866 0 23V18Z" fill="#F0FFF7"/>
<rect x="0.5" y="0.5" width="29" height="29" rx="6.5" stroke="#F0FFF7"/>
<path d="M11 23V26.7C11 26.8657 10.8657 27 10.7 27H9.3C9.13431 27 9 26.8657 9 26.7V24.8C9 24.6343 8.86569 24.5 8.7 24.5H7.3C7.13431 24.5 7 24.6343 7 24.8V26.7C7 26.8657 6.86569 27 6.7 27H5.3C5.13431 27 5 26.8657 5 26.7V23M11 23L9.5 21.5M11 23L12 24M11 23V21.5V20.3C11 20.1343 10.8657 20 10.7 20H9.8C9.63431 20 9.5 20.1343 9.5 20.3V21.5M5 23L7.78787 20.2121C7.90503 20.095 8.09497 20.095 8.21213 20.2121L9.5 21.5M5 23L4 24" stroke="#1E1E1E" stroke-linecap="round"/>
<path d="M11.712 16V14.496H13.344V8.912H10.736V7.28H10.96C11.7067 7.28 12.2933 7.2 12.72 7.04C13.1467 6.88 13.456 6.64533 13.648 6.336C13.8507 6.02667 13.984 5.648 14.048 5.2L14.064 5.088H16.256V14.496H17.456V16H11.712Z" fill="#F0FFF7"/>
<path d="M18.5664 26.9961C18.6081 26.3555 18.6979 25.7565 18.8359 25.1992C18.974 24.6419 19.1328 24.1237 19.3125 23.6445C19.4922 23.1628 19.6654 22.7214 19.832 22.3203L20.2148 21.3945H18.2734V20.1211H21.7422V20.8711C21.7422 21.1471 21.6966 21.4258 21.6055 21.707C21.5143 21.9883 21.3945 22.2982 21.2461 22.6367C20.9232 23.3711 20.6654 24.1029 20.4727 24.832C20.2826 25.5586 20.1654 26.2799 20.1211 26.9961H18.5664ZM23.9297 27.0977C23.401 27.0977 22.9688 26.9674 22.6328 26.707C22.2995 26.444 22.1328 26.0417 22.1328 25.5V24.4766H23.5625V25.0664C23.5625 25.1888 23.569 25.3073 23.582 25.4219C23.5977 25.5365 23.6315 25.6302 23.6836 25.7031C23.7357 25.776 23.8177 25.8125 23.9297 25.8125C24.0781 25.8125 24.1758 25.763 24.2227 25.6641C24.2695 25.5625 24.293 25.4336 24.293 25.2773V23.9258C24.293 23.8138 24.2852 23.7031 24.2695 23.5938C24.2565 23.4844 24.2253 23.3932 24.1758 23.3203C24.1263 23.2474 24.0469 23.2109 23.9375 23.2109C23.6771 23.2109 23.5469 23.3997 23.5469 23.7773H22.2852V20.1211H25.5625V21.4102H23.5898V22.3789C23.6576 22.2956 23.7487 22.2227 23.8633 22.1602C23.9805 22.0951 24.1172 22.0625 24.2734 22.0625C24.5859 22.0625 24.8398 22.1224 25.0352 22.2422C25.2331 22.362 25.3841 22.5286 25.4883 22.7422C25.5951 22.9557 25.668 23.2031 25.707 23.4844C25.7487 23.7656 25.7695 24.0677 25.7695 24.3906C25.7695 24.8047 25.7474 25.1784 25.7031 25.5117C25.6615 25.8424 25.5768 26.1263 25.4492 26.3633C25.3242 26.6003 25.1393 26.7826 24.8945 26.9102C24.6523 27.0352 24.3307 27.0977 23.9297 27.0977Z" fill="#1E1E1E"/>
</svg>
