<svg width="24" height="24" viewBox="0 0 24 24" fill="none" xmlns="http://www.w3.org/2000/svg">
<path d="M0.75 12C0.75 5.7868 5.7868 0.75 12 0.75C18.2132 0.75 23.25 5.7868 23.25 12C23.25 18.2132 18.2132 23.25 12 23.25C5.7868 23.25 0.75 18.2132 0.75 12Z" stroke="white" stroke-width="1.5"/>
<path d="M11.0557 11.8496H11.793C11.9883 11.8496 12.1559 11.8236 12.2959 11.7715C12.4391 11.7161 12.5547 11.6396 12.6426 11.542C12.724 11.4574 12.7842 11.3548 12.8232 11.2344C12.8656 11.1107 12.8867 10.9772 12.8867 10.834C12.8867 10.694 12.8656 10.5671 12.8232 10.4531C12.7842 10.3359 12.724 10.235 12.6426 10.1504C12.5612 10.069 12.457 10.0055 12.3301 9.95996C12.2064 9.91439 12.0615 9.8916 11.8955 9.8916C11.7588 9.8916 11.6302 9.91113 11.5098 9.9502C11.3926 9.98926 11.29 10.0446 11.2021 10.1162C11.111 10.1911 11.0394 10.2806 10.9873 10.3848C10.9352 10.4889 10.9092 10.6061 10.9092 10.7363H9.55176C9.55176 10.4466 9.61035 10.1829 9.72754 9.94531C9.84798 9.70768 10.0124 9.5026 10.2207 9.33008C10.429 9.16081 10.6732 9.02897 10.9531 8.93457C11.2363 8.84017 11.5407 8.79297 11.8662 8.79297C12.2178 8.79297 12.54 8.83691 12.833 8.9248C13.126 9.00944 13.3766 9.13639 13.585 9.30566C13.7933 9.47819 13.9544 9.69141 14.0684 9.94531C14.1855 10.196 14.2441 10.4873 14.2441 10.8193C14.2441 10.9723 14.2214 11.1237 14.1758 11.2734C14.1302 11.4199 14.0635 11.5599 13.9756 11.6934C13.8877 11.8268 13.7786 11.9505 13.6484 12.0645C13.5182 12.1751 13.3685 12.2712 13.1992 12.3525C13.3978 12.4242 13.5687 12.5153 13.7119 12.626C13.8584 12.7367 13.9788 12.862 14.0732 13.002C14.1676 13.1452 14.2376 13.3014 14.2832 13.4707C14.3288 13.64 14.3516 13.819 14.3516 14.0078C14.3516 14.3398 14.2881 14.6361 14.1611 14.8965C14.0342 15.1569 13.86 15.375 13.6387 15.5508C13.4173 15.7298 13.1536 15.8665 12.8477 15.9609C12.5449 16.0521 12.2178 16.0977 11.8662 16.0977C11.5635 16.0977 11.2673 16.057 10.9775 15.9756C10.6911 15.891 10.4355 15.764 10.2109 15.5947C9.98633 15.4287 9.80566 15.2188 9.66895 14.9648C9.53548 14.7109 9.46875 14.4115 9.46875 14.0664H10.8262C10.8262 14.2031 10.8522 14.3301 10.9043 14.4473C10.9564 14.5612 11.0312 14.6589 11.1289 14.7402C11.2233 14.8249 11.3356 14.8916 11.4658 14.9404C11.596 14.986 11.7393 15.0088 11.8955 15.0088C12.0713 15.0088 12.2292 14.9844 12.3691 14.9355C12.5091 14.8867 12.6263 14.8151 12.7207 14.7207C12.8118 14.6361 12.8802 14.5319 12.9258 14.4082C12.9746 14.2845 12.999 14.1462 12.999 13.9932C12.999 13.8011 12.9714 13.6367 12.916 13.5C12.8607 13.3633 12.7809 13.251 12.6768 13.1631C12.5693 13.0752 12.4408 13.0101 12.291 12.9678C12.1445 12.9255 11.9785 12.9043 11.793 12.9043H11.0557V11.8496Z" fill="white"/>
</svg>
