<svg width="30" height="30" viewBox="0 0 30 30" fill="none" xmlns="http://www.w3.org/2000/svg">
<path d="M0 18H30V23C30 26.866 26.866 30 23 30H7C3.13401 30 0 26.866 0 23V18Z" fill="white"/>
<rect x="0.5" y="0.5" width="29" height="29" rx="6.5" stroke="white"/>
<path d="M11 23V26.7C11 26.8657 10.8657 27 10.7 27H9.3C9.13431 27 9 26.8657 9 26.7V24.8C9 24.6343 8.86569 24.5 8.7 24.5H7.3C7.13431 24.5 7 24.6343 7 24.8V26.7C7 26.8657 6.86569 27 6.7 27H5.3C5.13431 27 5 26.8657 5 26.7V23M11 23L9.5 21.5M11 23L12 24M11 23V21.5V20.3C11 20.1343 10.8657 20 10.7 20H9.8C9.63431 20 9.5 20.1343 9.5 20.3V21.5M5 23L7.78787 20.2121C7.90503 20.095 8.09497 20.095 8.21213 20.2121L9.5 21.5M5 23L4 24" stroke="#1E1E1E" stroke-linecap="round"/>
<path d="M15.52 16.16C14.56 16.16 13.7227 15.9893 13.008 15.648C12.304 15.3067 11.7707 14.8107 11.408 14.16C11.0453 13.5093 10.9013 12.72 10.976 11.792H12.656C12.688 12.24 12.8 12.6293 12.992 12.96C13.1947 13.28 13.4667 13.5253 13.808 13.696C14.1493 13.8667 14.544 13.952 14.992 13.952C15.6853 13.952 16.1867 13.8027 16.496 13.504C16.816 13.1947 16.976 12.8213 16.976 12.384C16.976 12.0107 16.8587 11.7067 16.624 11.472C16.3893 11.2373 16.0533 11.0613 15.616 10.944C15.1893 10.8267 14.6827 10.768 14.096 10.768V9.568C15.4293 9.48267 16.5227 9.54667 17.376 9.76C18.24 9.97333 18.88 10.32 19.296 10.8C19.712 11.28 19.92 11.8827 19.92 12.608C19.92 13.2373 19.76 13.824 19.44 14.368C19.12 14.912 18.6347 15.3493 17.984 15.68C17.3333 16 16.512 16.16 15.52 16.16ZM14.096 9.328C14.9707 9.328 15.6373 9.20533 16.096 8.96C16.5547 8.71467 16.784 8.31467 16.784 7.76C16.784 7.35467 16.608 7.04533 16.256 6.832C15.904 6.608 15.44 6.496 14.864 6.496C14.5227 6.496 14.224 6.528 13.968 6.592C13.712 6.656 13.4987 6.74133 13.328 6.848C13.168 6.95467 13.0453 7.07733 12.96 7.216L12.784 6.784C13.2213 6.784 13.584 6.864 13.872 7.024C14.1707 7.184 14.32 7.45067 14.32 7.824C14.32 8.19733 14.192 8.49067 13.936 8.704C13.68 8.90667 13.3387 9.008 12.912 9.008C12.4427 9.008 12.0427 8.87467 11.712 8.608C11.3813 8.33067 11.216 7.93067 11.216 7.408C11.216 6.88533 11.4027 6.44267 11.776 6.08C12.16 5.70667 12.6667 5.424 13.296 5.232C13.9253 5.02933 14.6187 4.928 15.376 4.928C16.176 4.928 16.8907 5.04 17.52 5.264C18.16 5.47733 18.6613 5.78667 19.024 6.192C19.3973 6.58667 19.584 7.056 19.584 7.6C19.584 8.464 19.136 9.11467 18.24 9.552C17.3547 9.97867 15.9733 10.1707 14.096 10.128V9.328Z" fill="white"/>
<path d="M18.5664 26.9961C18.6081 26.3555 18.6979 25.7565 18.8359 25.1992C18.974 24.6419 19.1328 24.1237 19.3125 23.6445C19.4922 23.1628 19.6654 22.7214 19.832 22.3203L20.2148 21.3945H18.2734V20.1211H21.7422V20.8711C21.7422 21.1471 21.6966 21.4258 21.6055 21.707C21.5143 21.9883 21.3945 22.2982 21.2461 22.6367C20.9232 23.3711 20.6654 24.1029 20.4727 24.832C20.2826 25.5586 20.1654 26.2799 20.1211 26.9961H18.5664ZM23.9297 27.0977C23.401 27.0977 22.9688 26.9674 22.6328 26.707C22.2995 26.444 22.1328 26.0417 22.1328 25.5V24.4766H23.5625V25.0664C23.5625 25.1888 23.569 25.3073 23.582 25.4219C23.5977 25.5365 23.6315 25.6302 23.6836 25.7031C23.7357 25.776 23.8177 25.8125 23.9297 25.8125C24.0781 25.8125 24.1758 25.763 24.2227 25.6641C24.2695 25.5625 24.293 25.4336 24.293 25.2773V23.9258C24.293 23.8138 24.2852 23.7031 24.2695 23.5938C24.2565 23.4844 24.2253 23.3932 24.1758 23.3203C24.1263 23.2474 24.0469 23.2109 23.9375 23.2109C23.6771 23.2109 23.5469 23.3997 23.5469 23.7773H22.2852V20.1211H25.5625V21.4102H23.5898V22.3789C23.6576 22.2956 23.7487 22.2227 23.8633 22.1602C23.9805 22.0951 24.1172 22.0625 24.2734 22.0625C24.5859 22.0625 24.8398 22.1224 25.0352 22.2422C25.2331 22.362 25.3841 22.5286 25.4883 22.7422C25.5951 22.9557 25.668 23.2031 25.707 23.4844C25.7487 23.7656 25.7695 24.0677 25.7695 24.3906C25.7695 24.8047 25.7474 25.1784 25.7031 25.5117C25.6615 25.8424 25.5768 26.1263 25.4492 26.3633C25.3242 26.6003 25.1393 26.7826 24.8945 26.9102C24.6523 27.0352 24.3307 27.0977 23.9297 27.0977Z" fill="#1E1E1E"/>
</svg>
