<svg width="24" height="24" viewBox="0 0 24 24" fill="none" xmlns="http://www.w3.org/2000/svg">
<rect x="0.75" y="0.75" width="22.5" height="22.5" rx="11.25" stroke="white" stroke-width="1.5"/>
<path d="M10.0137 16H8.6416V10.5459L6.84473 11.1904V10.0088L9.94043 8.89062H10.0137V16ZM17.3428 16H12.4941V15.0723L14.7939 12.6016C14.973 12.4062 15.1243 12.2288 15.248 12.0693C15.3717 11.9098 15.4727 11.7633 15.5508 11.6299C15.6257 11.4997 15.6794 11.3776 15.7119 11.2637C15.7477 11.1497 15.7656 11.0391 15.7656 10.9316C15.7656 10.7721 15.7428 10.6305 15.6973 10.5068C15.6517 10.3831 15.5882 10.2773 15.5068 10.1895C15.4222 10.1048 15.3213 10.0397 15.2041 9.99414C15.0902 9.94857 14.9632 9.92578 14.8232 9.92578C14.641 9.92578 14.4798 9.95182 14.3398 10.0039C14.2031 10.0527 14.0892 10.126 13.998 10.2236C13.9036 10.3245 13.832 10.4499 13.7832 10.5996C13.7344 10.7493 13.71 10.9202 13.71 11.1123H12.3477C12.3477 10.7965 12.4079 10.4987 12.5283 10.2188C12.6488 9.93555 12.8197 9.68815 13.041 9.47656C13.2591 9.26497 13.5228 9.09896 13.832 8.97852C14.1445 8.85482 14.4896 8.79297 14.8672 8.79297C15.2285 8.79297 15.5475 8.84342 15.8242 8.94434C16.1042 9.04525 16.3385 9.18685 16.5273 9.36914C16.7129 9.55143 16.8545 9.77116 16.9521 10.0283C17.0498 10.2822 17.0986 10.5638 17.0986 10.873C17.0986 11.1074 17.0612 11.332 16.9863 11.5469C16.9147 11.7585 16.8122 11.9684 16.6787 12.1768C16.542 12.3851 16.3792 12.5983 16.1904 12.8164C16.0016 13.0312 15.7917 13.2575 15.5605 13.4951L14.2227 14.9111H17.3428V16Z" fill="white"/>
</svg>
