<svg width="30" height="30" viewBox="0 0 30 30" fill="none" xmlns="http://www.w3.org/2000/svg">
<path d="M0 18H30V23C30 26.866 26.866 30 23 30H7C3.13401 30 0 26.866 0 23V18Z" fill="white"/>
<rect x="0.5" y="0.5" width="29" height="29" rx="6.5" stroke="white"/>
<path d="M11 23V26.7C11 26.8657 10.8657 27 10.7 27H9.3C9.13431 27 9 26.8657 9 26.7V24.8C9 24.6343 8.86569 24.5 8.7 24.5H7.3C7.13431 24.5 7 24.6343 7 24.8V26.7C7 26.8657 6.86569 27 6.7 27H5.3C5.13431 27 5 26.8657 5 26.7V23M11 23L9.5 21.5M11 23L12 24M11 23V21.5V20.3C11 20.1343 10.8657 20 10.7 20H9.8C9.63431 20 9.5 20.1343 9.5 20.3V21.5M5 23L7.78787 20.2121C7.90503 20.095 8.09497 20.095 8.21213 20.2121L9.5 21.5M5 23L4 24" stroke="#1E1E1E" stroke-linecap="round"/>
<path d="M14.744 16.16C13.8587 16.16 13.0587 16.048 12.344 15.824C11.6293 15.5893 11.064 15.2533 10.648 14.816C10.232 14.3787 10.024 13.8507 10.024 13.232C10.024 12.6027 10.216 12.0907 10.6 11.696C10.984 11.2907 11.4907 10.9973 12.12 10.816C12.7493 10.624 13.432 10.528 14.168 10.528L14.28 10.944C14.0347 10.9973 13.7947 11.1093 13.56 11.28C13.336 11.44 13.1493 11.6587 13 11.936C12.8507 12.2027 12.776 12.528 12.776 12.912C12.776 13.2427 12.8613 13.5413 13.032 13.808C13.2133 14.064 13.4587 14.2667 13.768 14.416C14.088 14.5547 14.456 14.624 14.872 14.624C15.4267 14.624 15.8587 14.5067 16.168 14.272C16.488 14.0373 16.648 13.7067 16.648 13.28C16.648 12.9387 16.5467 12.6667 16.344 12.464C16.1413 12.2613 15.88 12.096 15.56 11.968C15.24 11.84 14.9093 11.7333 14.568 11.648L14.264 11.568C13.784 11.44 13.304 11.2853 12.824 11.104C12.344 10.9227 11.9067 10.6987 11.512 10.432C11.1173 10.1653 10.7973 9.83467 10.552 9.44C10.3173 9.04533 10.2 8.576 10.2 8.032C10.2 7.31733 10.408 6.73067 10.824 6.272C11.2507 5.81333 11.816 5.47733 12.52 5.264C13.224 5.04 13.9973 4.928 14.84 4.928C15.6933 4.928 16.44 5.024 17.08 5.216C17.7307 5.39733 18.2373 5.67467 18.6 6.048C18.9627 6.42133 19.144 6.89067 19.144 7.456C19.144 8 18.9573 8.464 18.584 8.848C18.2213 9.22133 17.736 9.49867 17.128 9.68C16.5307 9.86133 15.8747 9.94133 15.16 9.92L15.048 9.52C15.3467 9.46667 15.608 9.36533 15.832 9.216C16.0667 9.06667 16.248 8.88 16.376 8.656C16.5147 8.42133 16.584 8.16 16.584 7.872C16.584 7.56267 16.504 7.30133 16.344 7.088C16.1947 6.87467 15.9813 6.71467 15.704 6.608C15.4267 6.49067 15.1067 6.432 14.744 6.432C14.4347 6.432 14.1573 6.47467 13.912 6.56C13.6667 6.64533 13.4693 6.768 13.32 6.928C13.1813 7.088 13.112 7.29067 13.112 7.536C13.112 7.80267 13.1867 8.016 13.336 8.176C13.496 8.336 13.7147 8.46933 13.992 8.576C14.28 8.68267 14.6107 8.78933 14.984 8.896L15.288 8.976C15.8533 9.12533 16.3973 9.29067 16.92 9.472C17.4427 9.65333 17.912 9.88267 18.328 10.16C18.744 10.4267 19.0693 10.7627 19.304 11.168C19.5493 11.5627 19.6667 12.0587 19.656 12.656C19.6453 13.7547 19.2027 14.6133 18.328 15.232C17.464 15.8507 16.2693 16.16 14.744 16.16Z" fill="white"/>
<path d="M18.5664 26.9961C18.6081 26.3555 18.6979 25.7565 18.8359 25.1992C18.974 24.6419 19.1328 24.1237 19.3125 23.6445C19.4922 23.1628 19.6654 22.7214 19.832 22.3203L20.2148 21.3945H18.2734V20.1211H21.7422V20.8711C21.7422 21.1471 21.6966 21.4258 21.6055 21.707C21.5143 21.9883 21.3945 22.2982 21.2461 22.6367C20.9232 23.3711 20.6654 24.1029 20.4727 24.832C20.2826 25.5586 20.1654 26.2799 20.1211 26.9961H18.5664ZM23.8438 27.0781C23.237 27.0781 22.7956 26.918 22.5195 26.5977C22.2435 26.2773 22.1055 25.7943 22.1055 25.1484V24.4297H23.5156V25.1523C23.5156 25.3346 23.5378 25.4896 23.582 25.6172C23.6289 25.7422 23.7318 25.8047 23.8906 25.8047C24.0521 25.8047 24.1549 25.737 24.1992 25.6016C24.2435 25.4635 24.2656 25.2396 24.2656 24.9297V24.7578C24.2656 24.5208 24.2253 24.3138 24.1445 24.1367C24.0664 23.9596 23.9115 23.8711 23.6797 23.8711C23.651 23.8711 23.625 23.8724 23.6016 23.875C23.5807 23.875 23.5625 23.8763 23.5469 23.8789V22.6445C23.7839 22.6445 23.9648 22.5924 24.0898 22.4883C24.2148 22.3815 24.2773 22.2044 24.2773 21.957C24.2773 21.569 24.1654 21.375 23.9414 21.375C23.7956 21.375 23.6966 21.4323 23.6445 21.5469C23.5951 21.6589 23.5703 21.8021 23.5703 21.9766V22.1836H22.1484C22.1458 22.1523 22.1432 22.1146 22.1406 22.0703C22.1406 22.026 22.1406 21.9831 22.1406 21.9414C22.1406 21.3112 22.2878 20.849 22.582 20.5547C22.8763 20.2604 23.3268 20.1133 23.9336 20.1133C25.1055 20.1133 25.6914 20.7227 25.6914 21.9414C25.6914 22.2799 25.6458 22.5599 25.5547 22.7812C25.4635 23 25.2943 23.1536 25.0469 23.2422C25.2422 23.3359 25.3867 23.4557 25.4805 23.6016C25.5742 23.7474 25.6354 23.9284 25.6641 24.1445C25.6927 24.3607 25.707 24.6224 25.707 24.9297C25.707 25.6172 25.5625 26.1471 25.2734 26.5195C24.987 26.8919 24.5104 27.0781 23.8438 27.0781Z" fill="#1E1E1E"/>
</svg>
